REM DIRINDEX 1\5,1\2\6,1\2\7,1\3\8,1\3\9,1\4\10,1\4\11,1\4\12
REM DIRNAME folder01,folder02,folder03,folder04,folder05,folder06,folder07,folder08,folder09,folder10,folder11,folder12
TITLE ""
FILE "EJE_DB3000_5th_6C_45.mp3" MP3
  TRACK 01 AUDIO
    TITLE "0:"
    INDEX 01 00:00:00
  TRACK 02 AUDIO
    TITLE "10:cjc026_11898"
    INDEX 01 00:00:05
  TRACK 03 AUDIO
    TITLE "0:"
    INDEX 01 00:00:66
  TRACK 04 AUDIO
    TITLE "11:cjc026_11899"
    INDEX 01 00:01:17
  TRACK 05 AUDIO
    TITLE "0:"
    INDEX 01 00:02:20
  TRACK 06 AUDIO
    TITLE "12:cjc026_11900"
    INDEX 01 00:02:49
  TRACK 07 AUDIO
    TITLE "0:"
    INDEX 01 00:03:35
  TRACK 08 AUDIO
    TITLE "10:cjc026_11901"
    INDEX 01 00:03:61
  TRACK 09 AUDIO
    TITLE "0:"
    INDEX 01 00:04:48
  TRACK 10 AUDIO
    TITLE "11:cjc026_11902"
    INDEX 01 00:04:74
  TRACK 11 AUDIO
    TITLE "0:"
    INDEX 01 00:06:08
  TRACK 12 AUDIO
    TITLE "12:cjc026_11903"
    INDEX 01 00:06:33
  TRACK 13 AUDIO
    TITLE "0:"
    INDEX 01 00:07:23
  TRACK 14 AUDIO
    TITLE "10:cjc026_11904"
    INDEX 01 00:07:47
  TRACK 15 AUDIO
    TITLE "0:"
    INDEX 01 00:08:34
  TRACK 16 AUDIO
    TITLE "11:cjc026_11905"
    INDEX 01 00:08:62
  TRACK 17 AUDIO
    TITLE "0:"
    INDEX 01 00:09:57
  TRACK 18 AUDIO
    TITLE "12:cjc026_11906"
    INDEX 01 00:10:08
  TRACK 19 AUDIO
    TITLE "0:"
    INDEX 01 00:10:70
  TRACK 20 AUDIO
    TITLE "10:cjc026_11907"
    INDEX 01 00:11:21
  TRACK 21 AUDIO
    TITLE "0:"
    INDEX 01 00:12:07
  TRACK 22 AUDIO
    TITLE "11:cjc026_11908"
    INDEX 01 00:12:34
  TRACK 23 AUDIO
    TITLE "0:"
    INDEX 01 00:13:35
  TRACK 24 AUDIO
    TITLE "12:cjc026_11909"
    INDEX 01 00:13:59
  TRACK 25 AUDIO
    TITLE "0:"
    INDEX 01 00:14:49
  TRACK 26 AUDIO
    TITLE "10:cjc026_11910"
    INDEX 01 00:14:72
  TRACK 27 AUDIO
    TITLE "0:"
    INDEX 01 00:15:64
  TRACK 28 AUDIO
    TITLE "11:cjc026_11911"
    INDEX 01 00:16:16
  TRACK 29 AUDIO
    TITLE "0:"
    INDEX 01 00:17:31
  TRACK 30 AUDIO
    TITLE "12:cjc026_11912"
    INDEX 01 00:17:57
  TRACK 31 AUDIO
    TITLE "0:"
    INDEX 01 00:18:50
  TRACK 32 AUDIO
    TITLE "10:cjc026_11913"
    INDEX 01 00:19:01
  TRACK 33 AUDIO
    TITLE "0:"
    INDEX 01 00:19:58
  TRACK 34 AUDIO
    TITLE "11:cjc026_11914"
    INDEX 01 00:20:08
  TRACK 35 AUDIO
    TITLE "0:"
    INDEX 01 00:21:17
  TRACK 36 AUDIO
    TITLE "12:cjc026_11915"
    INDEX 01 00:21:43
  TRACK 37 AUDIO
    TITLE "0:"
    INDEX 01 00:22:25
  TRACK 38 AUDIO
    TITLE "10:cjc026_11916"
    INDEX 01 00:22:52
  TRACK 39 AUDIO
    TITLE "0:"
    INDEX 01 00:23:46
  TRACK 40 AUDIO
    TITLE "11:cjc026_11917"
    INDEX 01 00:23:71
  TRACK 41 AUDIO
    TITLE "0:"
    INDEX 01 00:25:11
  TRACK 42 AUDIO
    TITLE "12:cjc026_11918"
    INDEX 01 00:25:35
  TRACK 43 AUDIO
    TITLE "0:"
    INDEX 01 00:26:32
  TRACK 44 AUDIO
    TITLE "10:cjc026_11919"
    INDEX 01 00:26:58
  TRACK 45 AUDIO
    TITLE "0:"
    INDEX 01 00:27:45
  TRACK 46 AUDIO
    TITLE "11:cjc026_11920"
    INDEX 01 00:27:73
  TRACK 47 AUDIO
    TITLE "0:"
    INDEX 01 00:29:19
  TRACK 48 AUDIO
    TITLE "12:cjc026_11921"
    INDEX 01 00:29:44
  TRACK 49 AUDIO
    TITLE "0:"
    INDEX 01 00:30:32
  TRACK 50 AUDIO
    TITLE "10:cjc026_11922"
    INDEX 01 00:30:59
  TRACK 51 AUDIO
    TITLE "0:"
    INDEX 01 00:31:51
  TRACK 52 AUDIO
    TITLE "11:cjc026_11923"
    INDEX 01 00:32:03
  TRACK 53 AUDIO
    TITLE "0:"
    INDEX 01 00:33:11
  TRACK 54 AUDIO
    TITLE "12:cjc026_11924"
    INDEX 01 00:33:38
  TRACK 55 AUDIO
    TITLE "0:"
    INDEX 01 00:34:30
  TRACK 56 AUDIO
    TITLE "10:cjc026_11925"
    INDEX 01 00:34:57
  TRACK 57 AUDIO
    TITLE "0:"
    INDEX 01 00:35:51
  TRACK 58 AUDIO
    TITLE "11:cjc026_11926"
    INDEX 01 00:36:01
  TRACK 59 AUDIO
    TITLE "0:"
    INDEX 01 00:37:05
  TRACK 60 AUDIO
    TITLE "12:cjc026_11927"
    INDEX 01 00:37:30
  TRACK 61 AUDIO
    TITLE "0:"
    INDEX 01 00:38:24
  TRACK 62 AUDIO
    TITLE "10:cjc026_11928"
    INDEX 01 00:38:49
  TRACK 63 AUDIO
    TITLE "0:"
    INDEX 01 00:39:39
  TRACK 64 AUDIO
    TITLE "11:cjc026_11929"
    INDEX 01 00:39:62
  TRACK 65 AUDIO
    TITLE "0:"
    INDEX 01 00:40:60
  TRACK 66 AUDIO
    TITLE "12:cjc026_11930"
    INDEX 01 00:41:14
  TRACK 67 AUDIO
    TITLE "0:"
    INDEX 01 00:42:04
